# xmcd
#
# Track frame offsets:
#	150
#	14701
#	35370
#	52108
#	67682
#	87783
#	104612
#	123218
#	141074
#	157658
#	174603
#	191309
#	213278
#	229099
#	247799
#	275903
#
# Disc length: 3684 seconds
#
# Revision: 1
# Processed by: cddbd v1.5.2PL0 Copyright (c) Steve Scherf et al.
# Submitted via: audiograbber 1.83.01
#
DISCID=d20e6210
DTITLE=Various Artist - ASK Gal Country Vol2,2
DYEAR=2006
DGENRE=Karaoke
TTITLE0=Forester Sisters - Men
TTITLE1=Willie Nelson ans LeeAnn Rimes - Mendocino County
TTITLE2=Terri Clark - No Fear
TTITLE3=Kasey Chambers - Not Pretty Enough
TTITLE4=Chely Wright - One Night In Las Vegas
TTITLE5=Jamie O'Neal - Sanctary
TTITLE6=Jamie O'Neal - Shiver
TTITLE7=Deanna Carter - Strawberry Wine
TTITLE8=Lee Ann Womack - Stronger Than I Am
TTITLE9=Shania Twain - The Heart Is Blind
TTITLE10=Pam Tillis - Thunder And Roses
TTITLE11=Dixie Chicks - Tavelin Soldier
TTITLE12=Martha McBride - When God Fearin' Woman Get The Blues
TTITLE13=Kellie Coffey - When You Lie Next to me
TTITLE14=Sara Evens - Why Should I Care
TTITLE15=data - Data Track
EXTD=
EXTT0=
EXTT1=
EXTT2=
EXTT3=
EXTT4=
EXTT5=
EXTT6=
EXTT7=
EXTT8=
EXTT9=
EXTT10=
EXTT11=
EXTT12=
EXTT13=
EXTT14=
EXTT15=
PLAYORDER=
